Coordinates
version=1
nRows=26
nColumns=24
inDegrees=yes

Units are S.I. units (second, meters, Newtons, ...)
Angles are in degrees.

endheader
time	pelvis_tilt	pelvis_list	pelvis_rotation	pelvis_tx	pelvis_ty	pelvis_tz	hip_flexion_r	hip_adduction_r	hip_rotation_r	knee_angle_r	ankle_angle_r	subtalar_angle_r	mtp_angle_r	hip_flexion_l	hip_adduction_l	hip_rotation_l	knee_angle_l	ankle_angle_l	subtalar_angle_l	mtp_angle_l	lumbar_extension	lumbar_bending	lumbar_rotation
      2.84500000	     -8.53823001	     -5.01030197	      5.45083379	     -1.71461600	     -0.03492633	      0.67394179	     30.32874429	      1.93309748	     -0.34828436	    -33.99449881	      3.17357780	     -1.12092571	     17.01035480	     16.55994288	     -4.75874013	      3.08668660	    -62.41032957	    -27.20590637	      4.03130604	     34.92243202	      7.39927752	     12.26031825	     -6.42331629
      2.85000000	     -8.52961920	     -4.90476838	      5.26329026	     -1.70785484	     -0.03364216	      0.67477857	     29.70816108	      2.02393700	     -0.16035983	    -33.69825382	      3.57417814	     -0.99502468	     16.73402611	     17.51544820	     -4.65039883	      2.74417310	    -63.33609235	    -26.23061129	      5.44350590	     37.79259527	      7.27772883	     12.18384880	     -6.02170231
      2.85500000	     -8.52117584	     -4.85694609	      5.10320334	     -1.70117903	     -0.03232802	      0.67551146	     29.06462970	      2.15140745	      0.00346562	    -33.32588309	      3.82489160	     -0.97290016	     16.67625806	     18.50194940	     -4.59970551	      2.41682789	    -64.26140995	    -25.22737428	      6.64204650	     39.83844378	      7.16451311	     12.16921711	     -5.65727834
      2.86000000	     -8.50399627	     -4.73885101	      4.92984748	     -1.69451695	     -0.03098803	      0.67629201	     28.40417751	      2.20492721	      0.16068857	    -32.94901181	      4.10430582	     -0.93595427	     16.65948625	     19.45941468	     -4.49889523	      2.03018320	    -65.13304228	    -24.29453466	      7.65360737	     41.09773296	      7.02933548	     12.06816642	     -5.30378805
      2.86500000	     -8.49862072	     -4.72382462	      4.75905233	     -1.68775257	     -0.02965440	      0.67707306	     27.71266822	      2.36195095	      0.31571697	    -32.48438981	      4.35875854	     -0.92078428	     16.57652992	     20.43003900	     -4.53040366	      1.65425240	    -65.94855446	    -23.58615686	      8.32277253	     42.11112551	      6.94605055	     12.07509511	     -4.95729180
      2.87000000	     -8.49324766	     -4.74619765	      4.59464876	     -1.68099332	     -0.02832134	      0.67786600	     27.00306185	      2.55413122	      0.45590649	    -31.97902529	      4.57196694	     -0.96582973	     16.41059004	     21.39873199	     -4.61797286	      1.27620829	    -66.70514629	    -23.09867604	      8.61661943	     42.77491281	      6.87055636	     12.11297582	     -4.64603324
      2.87500000	     -8.46612081	     -4.75799150	      4.47864883	     -1.67420286	     -0.02695799	      0.67852021	     26.24172582	      2.69465964	      0.54126760	    -31.43081708	      4.79806065	     -0.91285709	     16.36484793	     22.32643972	     -4.67135500	      0.93545290	    -67.38915527	    -22.76164134	      8.52170909	     42.98217726	      6.79120567	     12.13832837	     -4.41342294
      2.88000000	     -8.47174006	     -4.83641453	      4.27853600	     -1.66744196	     -0.02568372	      0.67943090	     25.51653580	      2.96423144	      0.70718740	    -30.85944751	      4.94826558	     -1.05818474	     16.16361873	     23.28633475	     -4.86346837	      0.54329162	    -68.03146838	    -22.54897526	      8.33410919	     42.93105427	      6.72739889	     12.22729323	     -4.09911127
      2.88500000	     -8.48931714	     -4.88123608	      4.08961024	     -1.66066420	     -0.02444459	      0.68030098	     24.78227440	      3.21264981	      1.01245199	    -30.28033573	      5.14297345	     -1.22042362	     15.62126859	     24.24093414	     -5.00005882	      0.16360176	    -68.66044087	    -22.13323502	      7.98753506	     41.75444997	      6.67988955	     12.27384844	     -3.79983288
      2.89000000	     -8.48931668	     -4.93741869	      3.90821201	     -1.65376879	     -0.02318391	      0.68105644	     24.00197746	      3.42916290	      1.18248093	    -29.65017170	      5.32875535	     -1.25528671	     15.29836399	     25.13552947	     -5.14969789	     -0.21972261	    -69.18795351	    -21.74859932	      7.41826382	     40.44247906	      6.64112167	     12.34460303	     -3.52922671
      2.89500000	     -8.48854147	     -4.99109219	      3.72430783	     -1.64693286	     -0.02196793	      0.68185556	     23.21586080	      3.65312378	      1.41021766	    -29.00330037	      5.47376032	     -1.37686912	     15.00909778	     26.01933236	     -5.30302761	     -0.59134537	    -69.65029542	    -21.37679793	      6.76519155	     38.98288339	      6.58749825	     12.40611149	     -3.26747281
      2.90000000	     -8.48471461	     -5.03264370	      3.54195565	     -1.64010940	     -0.02078379	      0.68265071	     22.41734492	      3.86088436	      1.65553502	    -28.34107902	      5.61937928	     -1.51355470	     14.68686886	     26.87846606	     -5.44528489	     -0.95974149	    -70.03824186	    -20.95095622	      6.06447310	     37.37968806	      6.52635664	     12.45229323	     -3.01116776
      2.90500000	     -8.47958901	     -5.05616564	      3.36298176	     -1.63328631	     -0.01962368	      0.68342950	     21.60676481	      4.04444005	      1.92149888	    -27.66174780	      5.75367616	     -1.66376692	     14.32238421	     27.71398639	     -5.56493748	     -1.31466487	    -70.34665668	    -20.49364489	      5.36695560	     35.77277533	      6.46316303	     12.47803097	     -2.75796609
      2.91000000	     -8.47528070	     -5.05950582	      3.17856356	     -1.62643253	     -0.01848557	      0.68418695	     20.79034623	      4.19679476	      2.17506122	    -26.97309817	      5.87035485	     -1.80086583	     13.93095854	     28.51505127	     -5.66798973	     -1.67819182	    -70.56513899	    -19.95556410	      4.69087888	     34.23657501	      6.40253739	     12.48408948	     -2.51745678
      2.91500000	     -8.47888842	     -5.00013538	      3.00359729	     -1.61959511	     -0.01735544	      0.68497416	     19.97687258	      4.28798762	      2.49895690	    -26.27853174	      5.93580882	     -2.04411122	     13.60289619	     29.29034245	     -5.69771024	     -2.02464122	    -70.66048474	    -19.54746041	      4.01415894	     33.17949420	      6.34715112	     12.41297889	     -2.30055291
      2.92000000	     -8.45498100	     -4.97585047	      2.81298789	     -1.61283100	     -0.01635753	      0.68571674	     19.15651405	      4.39956875	      2.77426474	    -25.61823467	      6.09856512	     -2.12047093	     13.24038904	     30.03915135	     -5.77431471	     -2.36531448	    -70.75372790	    -18.89969294	      3.47279220	     31.85544765	      6.24196479	     12.39152376	     -2.01243760
      2.92500000	     -8.47721414	     -4.92229648	      2.64109855	     -1.60606677	     -0.01538432	      0.68645335	     18.38470108	      4.46526138	      3.01324453	    -24.94020206	      6.12907443	     -2.30005336	     13.06044453	     30.80084190	     -5.80683792	     -2.66843373	    -70.68772649	    -18.56737252	      2.83368083	     31.55518337	      6.19660376	     12.32736574	     -1.79080364
      2.93000000	     -8.42923017	     -4.77557611	      2.40275833	     -1.59926009	     -0.01440974	      0.68728787	     17.54108169	      4.46451747	      3.40243978	    -24.30194394	      6.27496790	     -2.42265969	     12.63896684	     31.43167279	     -5.79434139	     -3.06750741	    -70.59317883	    -17.82788290	      2.52611335	     30.43864497	      6.05754591	     12.17018690	     -1.50889447
      2.93500000	     -8.46751726	     -4.68417750	      2.22221892	     -1.59258716	     -0.01364018	      0.68801796	     16.81514662	      4.48404028	      3.69513953	    -23.67334684	      6.35309231	     -2.58628678	     12.45465334	     32.18130803	     -5.79248190	     -3.35839911	    -70.41141942	    -17.47547720	      1.99045084	     30.22239186	      6.00894596	     12.06510511	     -1.24556783
      2.94000000	     -8.41128088	     -4.55920995	      1.97001533	     -1.58585964	     -0.01284470	      0.68885720	     15.98980070	      4.49529148	      4.08762113	    -23.07073826	      6.50679553	     -2.68495645	     11.97069209	     32.77663866	     -5.81785786	     -3.72227836	    -70.18985277	    -16.81307275	      1.74779649	     29.45884184	      5.84704500	     11.92989390	     -0.93826191
      2.94500000	     -8.43802928	     -4.39136234	      1.73753400	     -1.57918311	     -0.01220514	      0.68966977	     15.27450790	      4.44636862	      4.47880347	    -22.49714962	      6.62322842	     -2.86185987	     11.64733818	     33.44558487	     -5.77855254	     -4.05700681	    -69.87197192	    -16.35284122	      1.43668346	     29.06384254	      5.77318789	     11.74021047	     -0.63445454
      2.95000000	     -8.45452815	     -4.19200884	      1.51699507	     -1.57250810	     -0.01162447	      0.69048159	     14.56092140	      4.35593496	      4.84139199	    -21.94289263	      6.71770952	     -3.08996894	     11.35854449	     34.07337515	     -5.70269792	     -4.36674660	    -69.47481604	    -15.88771682	      1.24056735	     28.71771161	      5.68779511	     11.50989353	     -0.32237898
      2.95500000	     -8.43692578	     -4.01782673	      1.24972750	     -1.56584911	     -0.01111329	      0.69134755	     13.81888554	      4.30344292	      5.28801157	    -21.40353338	      6.83339602	     -3.28623344	     11.00163086	     34.64425549	     -5.69743464	     -4.71529524	    -69.03862755	    -15.35921872	      1.09549734	     28.15685213	      5.55614189	     11.31281113	      0.01908927
      2.96000000	     -8.38795741	     -3.91793079	      1.00434673	     -1.55920481	     -0.01071295	      0.69211441	     13.05055570	      4.30887655	      5.68951930	    -20.88117116	      7.01955529	     -3.36054568	     10.43728956	     35.19412097	     -5.76019234	     -5.02576942	    -68.61389072	    -14.65131319	      1.01772176	     26.98194718	      5.39421657	     11.20058299	      0.31359817
      2.96500000	     -8.44171938	     -3.70192683	      0.78064727	     -1.55256002	     -0.01045664	      0.69288549	     12.42595809	      4.17604187	      6.00887641	    -20.40732289	      7.15240195	     -3.55363937	     10.19373984	     35.80426993	     -5.67658579	     -5.30760664	    -68.04383880	    -14.18005952	      0.96720813	     26.47412398	      5.35044294	     10.94705492	      0.64056082
      2.97000000	     -8.44179191	     -3.51758431	      0.54353626	     -1.54590261	     -0.01022704	      0.69368723	     11.73238132	      4.08279553	      6.43102651	    -19.91555201	      7.27515760	     -3.75609643	      9.92928150	     36.33675265	     -5.65035162	     -5.59497062	    -67.42762211	    -13.67873205	      0.96502028	     25.84337293	      5.24694806	     10.72743847	      0.93526485
